<svg xmlns="http://www.w3.org/2000/svg" xmlns:xlink="http://www.w3.org/1999/xlink" width="1000" zoomAndPan="magnify" viewBox="0 0 750 749.999995" height="1000" preserveAspectRatio="xMidYMid meet" version="1.0"><defs><clipPath id="99bac7b32c"><path d="M 7.332031 7 L 742.332031 7 L 742.332031 743 L 7.332031 743 Z M 7.332031 7 " clip-rule="nonzero"/></clipPath></defs><g clip-path="url(#99bac7b32c)"><path fill="#fd7302" d="M 742.332031 374.914062 C 742.332031 578.085938 577.84375 742.492188 374.832031 742.492188 C 171.808594 742.476562 7.332031 578.085938 7.332031 374.914062 C 7.332031 171.890625 171.808594 7.324219 374.832031 7.324219 C 577.84375 7.324219 742.332031 171.890625 742.332031 374.914062 Z M 742.332031 374.914062 " fill-opacity="1" fill-rule="nonzero"/></g><path fill="#ffffff" d="M 274.734375 206.910156 L 550.347656 482.578125 L 485.375 547.5625 L 209.761719 271.894531 Z M 274.734375 206.910156 " fill-opacity="1" fill-rule="nonzero"/><path fill="#ffffff" d="M 274.777344 547.570312 L 209.792969 482.585938 L 485.359375 206.898438 L 550.332031 271.867188 Z M 274.777344 547.570312 " fill-opacity="1" fill-rule="nonzero"/></svg>