<!DOCTYPE svg PUBLIC "-//W3C//DTD SVG 1.1//EN" "http://www.w3.org/Graphics/SVG/1.1/DTD/svg11.dtd">
<!-- Uploaded to: SVG Repo, www.svgrepo.com, Transformed by: SVG Repo Mixer Tools -->
<svg fill="#fd7302" height="800px" width="800px" version="1.1" id="Layer_1" xmlns="http://www.w3.org/2000/svg" xmlns:xlink="http://www.w3.org/1999/xlink" viewBox="0 0 512 512" xml:space="preserve">
<g id="SVGRepo_bgCarrier" stroke-width="0"/>
<g id="SVGRepo_tracerCarrier" stroke-linecap="round" stroke-linejoin="round"/>
<g id="SVGRepo_iconCarrier"> <g> <g> <circle cx="69.946" cy="52.391" r="41.736"/> </g> </g> <g> <g> <path d="M487.29,460.388l-63.572-89.92c0.207-1.08,10.841-59.523,42.547-222.914c3.054-15.735-7.227-30.966-22.962-34.02 L391.13,103.41c-15.735-3.054-30.966,7.227-34.02,22.962l-5.239,26.993l24.23-14.042l-49.807,49.623l-65.697,13.602 c-2.327-7.404-8.435-13.39-16.561-15.156l-74.739-16.238l-58.632-41.276l21.833,7.437l-3.289-10.861 c-3.631-11.991-14.566-19.714-26.106-18.403c-14.861,1.689-25.314,2.877-41.809,4.75c-11.564,1.313-20.462,11.264-21.313,23.791 L25.971,342.772c-0.477,7.02,5.14,12.875,11.591,12.142c6.356-0.722,14.756-1.677,24.366-2.769l2.865,25.219l-42.397,90.43 c-5.666,12.085-0.463,26.475,11.622,32.141c12.087,5.666,26.475,0.461,32.141-11.622l28.052-59.834l-8.973-78.983 c5.637-0.64,11.427-1.298,17.262-1.961l16.248,143.022c1.506,13.249,13.465,22.791,26.741,21.285 c13.262-1.507,22.791-13.48,21.285-26.74l-16.249-143.023c2.827-0.321,27.364-3.108,30.017-3.41 c6.464-0.734,10.615-7.684,8.572-14.433l-26.267-86.725l-11.246-1.494c-8.172-1.086-15.603-5.301-20.729-11.757l-45.924-57.849 l62.329,43.88c2.441,1.718,5.201,2.93,8.117,3.563l75.843,16.476c0.054,0.339,0.087,0.675,0.158,1.014 c2.498,12.066,14.303,19.791,26.33,17.298l84.107-17.413c4.243-0.88,8.138-2.976,11.207-6.032l54.505-54.306L367.387,239.6 c-3.114,5.328-8.21,8.777-13.806,9.961c-8.914,1.845-12.818,2.653-21.229,4.395l-43.1,228.166 c-2.641,13.604,6.246,26.773,19.85,29.413c13.625,2.643,26.776-6.264,29.413-19.85l38.112-196.317l10.099,1.959 c-0.501,1.716,0.554-3.531-14.302,74.201c-1.281,6.697,0.22,13.627,4.157,19.196l69.733,98.634 c8.002,11.317,23.659,14.003,34.974,6.003S495.291,471.703,487.29,460.388z"/> </g> </g> <g> <g> <circle cx="439.474" cy="46.173" r="46.173"/> </g> </g> </g>
</svg>