<!DOCTYPE svg PUBLIC "-//W3C//DTD SVG 1.1//EN" "http://www.w3.org/Graphics/SVG/1.1/DTD/svg11.dtd">
<!-- Uploaded to: SVG Repo, www.svgrepo.com, Transformed by: SVG Repo Mixer Tools -->
<svg fill="#fd7302" height="800px" width="800px" version="1.1" id="Capa_1" xmlns="http://www.w3.org/2000/svg" xmlns:xlink="http://www.w3.org/1999/xlink" viewBox="0 0 460.562 460.562" xml:space="preserve">
<g id="SVGRepo_bgCarrier" stroke-width="0"/>
<g id="SVGRepo_tracerCarrier" stroke-linecap="round" stroke-linejoin="round"/>
<g id="SVGRepo_iconCarrier"> <g id="XMLID_440_"> <path id="XMLID_478_" d="M416.38,142.522c-2.841-11.708-14.639-18.892-26.341-16.054L193.319,174.21l-35.612-64.533l50.978,9.799 c6.75,1.299,13.574-1.764,17.103-7.628c3.538-5.877,3.033-13.337-1.263-18.685l-52.673-65.548 c-4.957-6.168-13.472-7.793-20.242-4.299c2.92,10.222,2.619,20.902-0.517,30.699l20.027,24.922l-30.816-5.924l-38.526,79.098 l25.219-76.344c2.834-8.579-1.823-17.831-10.402-20.665c-8.579-2.837-17.831,1.824-20.665,10.403l-19.017,57.569l4.597-35.838 c-0.024-0.009-0.048-0.02-0.072-0.03l-25.055,13.827c-6.428,4.411-14.34,11.781-12.567,22.54l11.819,69.965 c1.327,7.859,8.132,13.635,16.139,13.635c7.006,0,13.299-4.489,15.525-11.229l1.712-5.183l23.076,44.651V438.75 c0,12.047,9.766,21.812,21.812,21.812s21.813-9.765,21.813-21.812V228.308c0,0,2.703-0.734,244.615-59.444 C412.034,166.022,419.22,154.229,416.38,142.522z"/> <path id="XMLID_515_" d="M84.609,72.12l2.002-9.762c2.927-14.274,16.871-23.473,31.145-20.546 c7.462,1.53,13.531,6.074,17.212,12.098c4.947-10.592,4.944-23.319-1.136-34.338C126.931,7.067,113.993,0,100.653,0 c-6.187,0-12.457,1.518-18.257,4.719c-18.305,10.102-24.956,33.13-14.854,51.435C71.557,63.429,77.62,68.846,84.609,72.12z"/> </g> </g>
</svg>