<svg xmlns="http://www.w3.org/2000/svg" xmlns:xlink="http://www.w3.org/1999/xlink" width="1000" zoomAndPan="magnify" viewBox="0 0 750 749.999995" height="1000" preserveAspectRatio="xMidYMid meet" version="1.0"><defs><clipPath id="4a2be39eb9"><path d="M 7.5 7.5 L 741.75 7.5 L 741.75 741.75 L 7.5 741.75 Z M 7.5 7.5 " clip-rule="nonzero"/></clipPath><clipPath id="5f1784a0f9"><path d="M 374.625 7.5 C 171.867188 7.5 7.5 171.867188 7.5 374.625 C 7.5 577.382812 171.867188 741.75 374.625 741.75 C 577.382812 741.75 741.75 577.382812 741.75 374.625 C 741.75 171.867188 577.382812 7.5 374.625 7.5 " clip-rule="nonzero"/></clipPath><clipPath id="acea94e626"><path d="M 623 296 L 684.75 296 L 684.75 480 L 623 480 Z M 623 296 " clip-rule="nonzero"/></clipPath></defs><g clip-path="url(#4a2be39eb9)"><g clip-path="url(#5f1784a0f9)"><path fill="#fd7302" d="M 7.5 7.5 L 741.75 7.5 L 741.75 741.75 L 7.5 741.75 Z M 7.5 7.5 " fill-opacity="1" fill-rule="nonzero"/></g></g><path fill="#ffffff" d="M 135.976562 296.683594 L 95.324219 296.683594 C 75 296.683594 75 309.964844 75 316.988281 L 75 459.117188 C 75 466.140625 75 479.417969 95.324219 479.417969 L 135.976562 479.417969 Z M 135.976562 296.683594 " fill-opacity="1" fill-rule="nonzero"/><path fill="#ffffff" d="M 278.25 337.292969 L 481.5 337.292969 L 481.5 418.507812 L 278.25 418.507812 Z M 278.25 337.292969 " fill-opacity="1" fill-rule="nonzero"/><g clip-path="url(#acea94e626)"><path fill="#ffffff" d="M 664.425781 296.683594 L 623.773438 296.683594 L 623.773438 479.417969 L 664.425781 479.417969 C 684.75 479.417969 684.75 466.140625 684.75 459.117188 L 684.75 316.988281 C 684.75 309.964844 684.75 296.683594 664.425781 296.683594 Z M 664.425781 296.683594 " fill-opacity="1" fill-rule="nonzero"/></g><path fill="#ffffff" d="M 257.925781 342.367188 L 257.925781 256.078125 C 257.925781 249.054688 257.925781 235.773438 237.601562 235.773438 L 176.625 235.773438 C 156.300781 235.773438 156.300781 249.054688 156.300781 256.078125 L 156.300781 499.722656 C 156.300781 506.75 156.300781 520.027344 176.625 520.027344 L 237.601562 520.027344 C 257.925781 520.027344 257.925781 506.75 257.925781 499.722656 Z M 257.925781 342.367188 " fill-opacity="1" fill-rule="nonzero"/><path fill="#ffffff" d="M 603.449219 469.265625 L 603.449219 256.078125 C 603.449219 249.054688 603.449219 235.773438 583.125 235.773438 L 520.523438 235.773438 C 501.824219 235.773438 501.824219 249.054688 501.824219 256.078125 L 501.824219 499.722656 C 501.824219 506.75 501.824219 520.027344 520.523438 520.027344 L 583.125 520.027344 C 603.449219 520.027344 603.449219 506.75 603.449219 499.722656 Z M 603.449219 469.265625 " fill-opacity="1" fill-rule="nonzero"/></svg>