<svg xmlns="http://www.w3.org/2000/svg" xmlns:xlink="http://www.w3.org/1999/xlink" width="1000" zoomAndPan="magnify" viewBox="0 0 750 749.999995" height="1000" preserveAspectRatio="xMidYMid meet" version="1.0"><defs><clipPath id="9f43e51d54"><path d="M 7.5 7.5 L 741.75 7.5 L 741.75 741.75 L 7.5 741.75 Z M 7.5 7.5 " clip-rule="nonzero"/></clipPath><clipPath id="5c9ce9ca9a"><path d="M 374.625 7.5 C 171.867188 7.5 7.5 171.867188 7.5 374.625 C 7.5 577.382812 171.867188 741.75 374.625 741.75 C 577.382812 741.75 741.75 577.382812 741.75 374.625 C 741.75 171.867188 577.382812 7.5 374.625 7.5 " clip-rule="nonzero"/></clipPath><clipPath id="789af96b64"><path d="M 162.253906 181.632812 L 586.753906 181.632812 L 586.753906 259 L 162.253906 259 Z M 162.253906 181.632812 " clip-rule="nonzero"/></clipPath><clipPath id="8c42b46987"><path d="M 162.253906 336 L 586.753906 336 L 586.753906 414 L 162.253906 414 Z M 162.253906 336 " clip-rule="nonzero"/></clipPath><clipPath id="f21230c849"><path d="M 162.253906 490 L 586.753906 490 L 586.753906 567.882812 L 162.253906 567.882812 Z M 162.253906 490 " clip-rule="nonzero"/></clipPath></defs><g clip-path="url(#9f43e51d54)"><g clip-path="url(#5c9ce9ca9a)"><path fill="#fd7302" d="M 7.5 7.5 L 741.75 7.5 L 741.75 741.75 L 7.5 741.75 Z M 7.5 7.5 " fill-opacity="1" fill-rule="nonzero"/></g></g><g clip-path="url(#789af96b64)"><path fill="#ffffff" d="M 200.90625 258.882812 L 548.097656 258.882812 C 549.363281 258.882812 550.621094 258.820312 551.878906 258.695312 C 553.136719 258.570312 554.386719 258.386719 555.625 258.140625 C 556.863281 257.894531 558.085938 257.585938 559.296875 257.21875 C 560.503906 256.851562 561.695312 256.425781 562.859375 255.941406 C 564.027344 255.457031 565.167969 254.917969 566.285156 254.320312 C 567.398438 253.726562 568.480469 253.074219 569.53125 252.371094 C 570.582031 251.667969 571.59375 250.917969 572.570312 250.113281 C 573.546875 249.3125 574.484375 248.464844 575.375 247.570312 C 576.269531 246.675781 577.117188 245.738281 577.917969 244.761719 C 578.71875 243.78125 579.472656 242.769531 580.171875 241.714844 C 580.875 240.664062 581.523438 239.582031 582.121094 238.464844 C 582.714844 237.347656 583.253906 236.207031 583.738281 235.039062 C 584.222656 233.871094 584.648438 232.679688 585.015625 231.46875 C 585.378906 230.257812 585.6875 229.03125 585.933594 227.792969 C 586.179688 226.550781 586.367188 225.300781 586.488281 224.042969 C 586.613281 222.785156 586.675781 221.523438 586.675781 220.257812 C 586.675781 218.992188 586.613281 217.730469 586.488281 216.472656 C 586.367188 215.210938 586.179688 213.960938 585.933594 212.722656 C 585.6875 211.480469 585.378906 210.253906 585.015625 209.042969 C 584.648438 207.835938 584.222656 206.644531 583.738281 205.476562 C 583.253906 204.308594 582.714844 203.164062 582.121094 202.050781 C 581.523438 200.933594 580.875 199.851562 580.175781 198.796875 C 579.472656 197.746094 578.71875 196.730469 577.917969 195.753906 C 577.117188 194.777344 576.269531 193.839844 575.375 192.945312 C 574.484375 192.050781 573.546875 191.203125 572.570312 190.398438 C 571.59375 189.597656 570.582031 188.84375 569.53125 188.140625 C 568.480469 187.4375 567.398438 186.789062 566.285156 186.191406 C 565.167969 185.597656 564.027344 185.054688 562.859375 184.570312 C 561.695312 184.089844 560.503906 183.664062 559.296875 183.296875 C 558.085938 182.929688 556.863281 182.621094 555.625 182.375 C 554.386719 182.128906 553.136719 181.941406 551.878906 181.816406 C 550.621094 181.695312 549.363281 181.632812 548.097656 181.632812 L 200.90625 181.632812 C 199.644531 181.632812 198.382812 181.695312 197.125 181.816406 C 195.871094 181.941406 194.621094 182.128906 193.382812 182.375 C 192.144531 182.621094 190.917969 182.929688 189.710938 183.296875 C 188.5 183.664062 187.3125 184.089844 186.144531 184.570312 C 184.976562 185.054688 183.835938 185.597656 182.722656 186.191406 C 181.609375 186.789062 180.527344 187.4375 179.476562 188.140625 C 178.425781 188.84375 177.410156 189.597656 176.433594 190.398438 C 175.457031 191.203125 174.523438 192.050781 173.628906 192.945312 C 172.738281 193.839844 171.890625 194.777344 171.085938 195.753906 C 170.285156 196.730469 169.535156 197.746094 168.832031 198.796875 C 168.128906 199.851562 167.480469 200.933594 166.886719 202.050781 C 166.289062 203.164062 165.75 204.308594 165.265625 205.476562 C 164.785156 206.644531 164.359375 207.835938 163.992188 209.042969 C 163.625 210.253906 163.320312 211.480469 163.074219 212.722656 C 162.824219 213.960938 162.640625 215.210938 162.515625 216.472656 C 162.394531 217.730469 162.332031 218.992188 162.332031 220.257812 C 162.332031 221.523438 162.394531 222.785156 162.515625 224.042969 C 162.640625 225.300781 162.824219 226.550781 163.074219 227.792969 C 163.320312 229.03125 163.625 230.257812 163.992188 231.46875 C 164.359375 232.679688 164.785156 233.871094 165.265625 235.039062 C 165.75 236.207031 166.289062 237.347656 166.886719 238.464844 C 167.480469 239.582031 168.128906 240.664062 168.832031 241.714844 C 169.535156 242.769531 170.285156 243.78125 171.085938 244.761719 C 171.890625 245.738281 172.738281 246.675781 173.628906 247.570312 C 174.523438 248.464844 175.457031 249.3125 176.433594 250.113281 C 177.410156 250.917969 178.425781 251.667969 179.476562 252.371094 C 180.527344 253.074219 181.609375 253.726562 182.722656 254.320312 C 183.835938 254.917969 184.976562 255.457031 186.144531 255.941406 C 187.3125 256.425781 188.5 256.851562 189.710938 257.21875 C 190.917969 257.585938 192.144531 257.894531 193.382812 258.140625 C 194.621094 258.386719 195.871094 258.570312 197.125 258.695312 C 198.382812 258.820312 199.644531 258.882812 200.90625 258.882812 Z M 200.90625 258.882812 " fill-opacity="1" fill-rule="nonzero"/></g><g clip-path="url(#8c42b46987)"><path fill="#ffffff" d="M 548.097656 336.132812 L 200.90625 336.132812 C 199.644531 336.132812 198.382812 336.195312 197.125 336.316406 C 195.871094 336.441406 194.621094 336.628906 193.382812 336.875 C 192.144531 337.121094 190.917969 337.429688 189.710938 337.796875 C 188.5 338.164062 187.3125 338.589844 186.144531 339.070312 C 184.976562 339.554688 183.835938 340.097656 182.722656 340.691406 C 181.609375 341.289062 180.527344 341.9375 179.476562 342.640625 C 178.425781 343.34375 177.410156 344.097656 176.433594 344.898438 C 175.457031 345.703125 174.523438 346.550781 173.628906 347.445312 C 172.738281 348.339844 171.890625 349.277344 171.085938 350.253906 C 170.285156 351.230469 169.535156 352.246094 168.832031 353.296875 C 168.128906 354.351562 167.480469 355.433594 166.886719 356.550781 C 166.289062 357.664062 165.75 358.808594 165.265625 359.976562 C 164.785156 361.144531 164.359375 362.335938 163.992188 363.542969 C 163.625 364.753906 163.320312 365.980469 163.074219 367.222656 C 162.824219 368.460938 162.640625 369.710938 162.515625 370.972656 C 162.394531 372.230469 162.332031 373.492188 162.332031 374.757812 C 162.332031 376.023438 162.394531 377.285156 162.515625 378.542969 C 162.640625 379.800781 162.824219 381.050781 163.074219 382.292969 C 163.320312 383.53125 163.625 384.757812 163.992188 385.96875 C 164.359375 387.179688 164.785156 388.371094 165.265625 389.539062 C 165.75 390.707031 166.289062 391.847656 166.886719 392.964844 C 167.480469 394.082031 168.128906 395.164062 168.832031 396.214844 C 169.535156 397.269531 170.285156 398.28125 171.085938 399.261719 C 171.890625 400.238281 172.738281 401.175781 173.628906 402.070312 C 174.523438 402.964844 175.457031 403.8125 176.433594 404.613281 C 177.410156 405.417969 178.425781 406.167969 179.476562 406.871094 C 180.527344 407.574219 181.609375 408.226562 182.722656 408.820312 C 183.835938 409.417969 184.976562 409.957031 186.144531 410.441406 C 187.3125 410.925781 188.5 411.351562 189.710938 411.71875 C 190.917969 412.085938 192.144531 412.394531 193.382812 412.640625 C 194.621094 412.886719 195.871094 413.070312 197.125 413.195312 C 198.382812 413.320312 199.644531 413.382812 200.90625 413.382812 L 548.097656 413.382812 C 549.363281 413.382812 550.621094 413.320312 551.878906 413.195312 C 553.136719 413.070312 554.386719 412.886719 555.625 412.640625 C 556.863281 412.394531 558.085938 412.085938 559.296875 411.71875 C 560.503906 411.351562 561.695312 410.925781 562.859375 410.441406 C 564.027344 409.957031 565.167969 409.417969 566.285156 408.820312 C 567.398438 408.226562 568.480469 407.574219 569.53125 406.871094 C 570.582031 406.167969 571.59375 405.417969 572.570312 404.613281 C 573.546875 403.8125 574.484375 402.964844 575.375 402.070312 C 576.269531 401.175781 577.117188 400.238281 577.917969 399.261719 C 578.71875 398.28125 579.472656 397.269531 580.171875 396.214844 C 580.875 395.164062 581.523438 394.082031 582.121094 392.964844 C 582.714844 391.847656 583.253906 390.707031 583.738281 389.539062 C 584.222656 388.371094 584.648438 387.179688 585.015625 385.96875 C 585.378906 384.757812 585.6875 383.53125 585.933594 382.292969 C 586.179688 381.050781 586.367188 379.800781 586.488281 378.542969 C 586.613281 377.285156 586.675781 376.023438 586.675781 374.757812 C 586.675781 373.492188 586.613281 372.230469 586.488281 370.972656 C 586.367188 369.710938 586.179688 368.460938 585.933594 367.222656 C 585.6875 365.980469 585.378906 364.753906 585.015625 363.542969 C 584.648438 362.335938 584.222656 361.144531 583.738281 359.976562 C 583.253906 358.808594 582.714844 357.664062 582.121094 356.550781 C 581.523438 355.433594 580.875 354.351562 580.175781 353.296875 C 579.472656 352.246094 578.71875 351.230469 577.917969 350.253906 C 577.117188 349.277344 576.269531 348.339844 575.375 347.445312 C 574.484375 346.550781 573.546875 345.703125 572.570312 344.898438 C 571.59375 344.097656 570.582031 343.34375 569.53125 342.640625 C 568.480469 341.9375 567.398438 341.289062 566.285156 340.691406 C 565.167969 340.097656 564.027344 339.554688 562.859375 339.070312 C 561.695312 338.589844 560.503906 338.164062 559.296875 337.796875 C 558.085938 337.429688 556.863281 337.121094 555.625 336.875 C 554.386719 336.628906 553.136719 336.441406 551.878906 336.316406 C 550.621094 336.195312 549.363281 336.132812 548.097656 336.132812 Z M 548.097656 336.132812 " fill-opacity="1" fill-rule="nonzero"/></g><g clip-path="url(#f21230c849)"><path fill="#ffffff" d="M 548.097656 490.632812 L 200.90625 490.632812 C 199.644531 490.632812 198.382812 490.695312 197.125 490.816406 C 195.871094 490.941406 194.621094 491.128906 193.382812 491.375 C 192.144531 491.621094 190.917969 491.929688 189.710938 492.296875 C 188.5 492.664062 187.3125 493.089844 186.144531 493.570312 C 184.976562 494.054688 183.835938 494.597656 182.722656 495.191406 C 181.609375 495.789062 180.527344 496.4375 179.476562 497.140625 C 178.425781 497.84375 177.410156 498.597656 176.433594 499.398438 C 175.457031 500.203125 174.523438 501.050781 173.628906 501.945312 C 172.738281 502.839844 171.890625 503.777344 171.085938 504.753906 C 170.285156 505.730469 169.535156 506.746094 168.832031 507.796875 C 168.128906 508.851562 167.480469 509.933594 166.886719 511.050781 C 166.289062 512.164062 165.75 513.308594 165.265625 514.476562 C 164.785156 515.644531 164.359375 516.835938 163.992188 518.042969 C 163.625 519.253906 163.320312 520.480469 163.074219 521.722656 C 162.824219 522.960938 162.640625 524.210938 162.515625 525.472656 C 162.394531 526.730469 162.332031 527.992188 162.332031 529.257812 C 162.332031 530.523438 162.394531 531.785156 162.515625 533.042969 C 162.640625 534.300781 162.824219 535.550781 163.074219 536.792969 C 163.320312 538.03125 163.625 539.257812 163.992188 540.46875 C 164.359375 541.679688 164.785156 542.871094 165.265625 544.039062 C 165.75 545.207031 166.289062 546.347656 166.886719 547.464844 C 167.480469 548.582031 168.128906 549.664062 168.832031 550.714844 C 169.535156 551.769531 170.285156 552.78125 171.085938 553.761719 C 171.890625 554.738281 172.738281 555.675781 173.628906 556.570312 C 174.523438 557.464844 175.457031 558.3125 176.433594 559.113281 C 177.410156 559.917969 178.425781 560.667969 179.476562 561.371094 C 180.527344 562.074219 181.609375 562.726562 182.722656 563.320312 C 183.835938 563.917969 184.976562 564.457031 186.144531 564.941406 C 187.3125 565.425781 188.5 565.851562 189.710938 566.21875 C 190.917969 566.585938 192.144531 566.894531 193.382812 567.140625 C 194.621094 567.386719 195.871094 567.570312 197.125 567.695312 C 198.382812 567.820312 199.644531 567.882812 200.90625 567.882812 L 548.097656 567.882812 C 549.363281 567.882812 550.621094 567.820312 551.878906 567.695312 C 553.136719 567.570312 554.386719 567.386719 555.625 567.140625 C 556.863281 566.894531 558.085938 566.585938 559.296875 566.21875 C 560.503906 565.851562 561.695312 565.425781 562.859375 564.941406 C 564.027344 564.457031 565.167969 563.917969 566.285156 563.320312 C 567.398438 562.726562 568.480469 562.074219 569.53125 561.371094 C 570.582031 560.667969 571.59375 559.917969 572.570312 559.113281 C 573.546875 558.3125 574.484375 557.464844 575.375 556.570312 C 576.269531 555.675781 577.117188 554.738281 577.917969 553.761719 C 578.71875 552.78125 579.472656 551.769531 580.171875 550.714844 C 580.875 549.664062 581.523438 548.582031 582.121094 547.464844 C 582.714844 546.347656 583.253906 545.207031 583.738281 544.039062 C 584.222656 542.871094 584.648438 541.679688 585.015625 540.46875 C 585.378906 539.257812 585.6875 538.03125 585.933594 536.792969 C 586.179688 535.550781 586.367188 534.300781 586.488281 533.042969 C 586.613281 531.785156 586.675781 530.523438 586.675781 529.257812 C 586.675781 527.992188 586.613281 526.730469 586.488281 525.472656 C 586.367188 524.210938 586.179688 522.960938 585.933594 521.722656 C 585.6875 520.480469 585.378906 519.253906 585.015625 518.042969 C 584.648438 516.835938 584.222656 515.644531 583.738281 514.476562 C 583.253906 513.308594 582.714844 512.164062 582.121094 511.050781 C 581.523438 509.933594 580.875 508.851562 580.175781 507.796875 C 579.472656 506.746094 578.71875 505.730469 577.917969 504.753906 C 577.117188 503.777344 576.269531 502.839844 575.375 501.945312 C 574.484375 501.050781 573.546875 500.203125 572.570312 499.398438 C 571.59375 498.597656 570.582031 497.84375 569.53125 497.140625 C 568.480469 496.4375 567.398438 495.789062 566.285156 495.191406 C 565.167969 494.597656 564.027344 494.054688 562.859375 493.570312 C 561.695312 493.089844 560.503906 492.664062 559.296875 492.296875 C 558.085938 491.929688 556.863281 491.621094 555.625 491.375 C 554.386719 491.128906 553.136719 490.941406 551.878906 490.816406 C 550.621094 490.695312 549.363281 490.632812 548.097656 490.632812 Z M 548.097656 490.632812 " fill-opacity="1" fill-rule="nonzero"/></g></svg>